<svg width="40" height="40" viewBox="0 0 40 40" fill="none" xmlns="http://www.w3.org/2000/svg">
<path fill-rule="evenodd" clip-rule="evenodd" d="M32.6736 3.52734L29.8495 0.667969C28.9698 -0.222656 27.5405 -0.222656 26.655 0.667969L24.6064 2.74219C24.3866 2.96484 24.3866 3.32812 24.6064 3.55078L29.8264 8.83594C30.0463 9.05859 30.405 9.05859 30.625 8.83594L32.6736 6.76172C33.5532 5.86523 33.5532 4.41797 32.6736 3.52734ZM23.2987 4.86914L28.5186 10.1543C28.7384 10.377 28.7384 10.7402 28.5186 10.9629L15.8796 23.7598L10.5093 24.3633C9.79175 24.4453 9.18408 23.8301 9.26514 23.1035L9.86121 17.666L22.5 4.86914C22.72 4.64648 23.0787 4.64648 23.2987 4.86914ZM22.2222 26.2443V20.2794C22.2222 20.0919 22.2975 19.9161 22.4248 19.7814L24.7396 17.4376C25.1794 16.9982 25.9259 17.3087 25.9259 17.9357V27.1818C25.9259 28.7345 24.6818 29.9943 23.1482 29.9943H2.77783C1.24426 29.9943 0 28.7345 0 27.1818V6.55676C0 5.00403 1.24426 3.74426 2.77783 3.74426H19.3171C19.9364 3.74426 20.2489 4.50012 19.8091 4.94543L17.4943 7.28918C17.3611 7.41809 17.1875 7.49426 17.0023 7.49426H3.70374V26.2443H22.2222Z" transform="translate(3.33337 5.00293)" fill="black"/>
<mask id="mask0" mask-type="alpha" maskUnits="userSpaceOnUse" x="3" y="5" width="34" height="30">
<path fill-rule="evenodd" clip-rule="evenodd" d="M32.6736 3.52734L29.8495 0.667969C28.9698 -0.222656 27.5405 -0.222656 26.655 0.667969L24.6064 2.74219C24.3866 2.96484 24.3866 3.32812 24.6064 3.55078L29.8264 8.83594C30.0463 9.05859 30.405 9.05859 30.625 8.83594L32.6736 6.76172C33.5532 5.86523 33.5532 4.41797 32.6736 3.52734ZM23.2987 4.86914L28.5186 10.1543C28.7384 10.377 28.7384 10.7402 28.5186 10.9629L15.8796 23.7598L10.5093 24.3633C9.79175 24.4453 9.18408 23.8301 9.26514 23.1035L9.86121 17.666L22.5 4.86914C22.72 4.64648 23.0787 4.64648 23.2987 4.86914ZM22.2222 26.2443V20.2794C22.2222 20.0919 22.2975 19.9161 22.4248 19.7814L24.7396 17.4376C25.1794 16.9982 25.9259 17.3087 25.9259 17.9357V27.1818C25.9259 28.7345 24.6818 29.9943 23.1482 29.9943H2.77783C1.24426 29.9943 0 28.7345 0 27.1818V6.55676C0 5.00403 1.24426 3.74426 2.77783 3.74426H19.3171C19.9364 3.74426 20.2489 4.50012 19.8091 4.94543L17.4943 7.28918C17.3611 7.41809 17.1875 7.49426 17.0023 7.49426H3.70374V26.2443H22.2222Z" transform="translate(3.33337 5.00293)" fill="white"/>
</mask>
<g mask="url(#mask0)">
<path fill-rule="evenodd" clip-rule="evenodd" d="M0 0H40V40H0V0Z" fill="url(#paint0_linear)"/>
</g>
<defs>
<linearGradient id="paint0_linear" x2="1" gradientUnits="userSpaceOnUse" gradientTransform="translate(20) scale(40) rotate(90)">
<stop stop-color="#F7931E"/>
<stop offset="1" stop-color="#D4145A"/>
</linearGradient>
</defs>
</svg>
