<svg width="45" height="42" viewBox="0 0 45 42" fill="none" xmlns="http://www.w3.org/2000/svg">
<g filter="url(#filter0_d)">
<path fill-rule="evenodd" clip-rule="evenodd" d="M0 4.5C0 2.01472 2.01472 0 4.5 0H30.0513C32.5366 0 34.5513 2.01472 34.5513 4.5V27.5C34.5513 29.9853 32.5366 32 30.0513 32H4.5C2.01472 32 0 29.9853 0 27.5V4.5Z" transform="translate(5 5)" fill="#2C2C2C"/>
<path fill-rule="evenodd" clip-rule="evenodd" d="M8.85553 1.55832C10.9334 -0.519562 14.314 -0.519318 16.3917 1.55832C18.4695 3.63596 18.4695 7.01682 16.3917 9.09445L15.0909 10.3952C14.7459 10.7402 14.1517 10.511 14.1339 10.0234C14.1111 9.40231 13.9998 8.77805 13.7943 8.17526C13.7247 7.97116 13.7742 7.74533 13.9268 7.59274L14.3856 7.134C15.3682 6.15134 15.399 4.55148 14.4261 3.5593C13.4437 2.55759 11.8287 2.55148 10.8387 3.54147L8.48273 5.89719C7.49445 6.88547 7.4986 8.48288 8.48273 9.46701C8.61261 9.59665 8.74323 9.69724 8.84528 9.76755C8.99176 9.86813 9.08209 10.032 9.08893 10.2094C9.10284 10.58 8.9715 10.9616 8.67877 11.2544L7.94073 11.9926C7.74713 12.186 7.44342 12.2099 7.21906 12.0532C6.96198 11.8737 6.72125 11.6721 6.49957 11.4504C4.40485 9.35349 4.43365 5.99191 6.48688 3.92722L6.49957 3.91428L8.85553 1.55832ZM11.4632 14.0227C13.5164 11.958 13.5452 8.59616 11.4507 6.49948C11.2291 6.2778 10.9881 6.07614 10.7313 5.89645C10.5067 5.73996 10.2032 5.76364 10.0096 5.95724L9.2713 6.69528C8.97858 6.98825 8.84747 7.36984 8.86139 7.74045C8.86798 7.91794 8.95831 8.08176 9.1048 8.18234C9.20685 8.25266 9.33771 8.35324 9.46735 8.48264C10.4515 9.46701 10.4556 11.0644 9.46735 12.0527L7.11139 14.4084C6.1214 15.3984 4.50665 15.3923 3.52399 14.3904C2.55109 13.3982 2.58209 11.7983 3.56451 10.8159L4.02325 10.3571C4.17584 10.2046 4.22565 9.97873 4.15607 9.77463C3.9505 9.17184 3.83893 8.54758 3.81622 7.92624C3.7984 7.43893 3.20441 7.20944 2.85944 7.55441L1.55841 8.85544C-0.51947 10.9331 -0.51947 14.3139 1.55841 16.3916C3.63605 18.4692 7.01666 18.4695 9.09479 16.3916L11.4507 14.0356L11.4632 14.0227Z" transform="translate(13.7949 11.7949)" fill="black"/>
<mask id="mask0" mask-type="alpha" maskUnits="userSpaceOnUse" x="13" y="11" width="19" height="19">
<path fill-rule="evenodd" clip-rule="evenodd" d="M8.85553 1.55832C10.9334 -0.519562 14.314 -0.519318 16.3917 1.55832C18.4695 3.63596 18.4695 7.01682 16.3917 9.09445L15.0909 10.3952C14.7459 10.7402 14.1517 10.511 14.1339 10.0234C14.1111 9.40231 13.9998 8.77805 13.7943 8.17526C13.7247 7.97116 13.7742 7.74533 13.9268 7.59274L14.3856 7.134C15.3682 6.15134 15.399 4.55148 14.4261 3.5593C13.4437 2.55759 11.8287 2.55148 10.8387 3.54147L8.48273 5.89719C7.49445 6.88547 7.4986 8.48288 8.48273 9.46701C8.61261 9.59665 8.74323 9.69724 8.84528 9.76755C8.99176 9.86813 9.08209 10.032 9.08893 10.2094C9.10284 10.58 8.9715 10.9616 8.67877 11.2544L7.94073 11.9926C7.74713 12.186 7.44342 12.2099 7.21906 12.0532C6.96198 11.8737 6.72125 11.6721 6.49957 11.4504C4.40485 9.35349 4.43365 5.99191 6.48688 3.92722L6.49957 3.91428L8.85553 1.55832ZM11.4632 14.0227C13.5164 11.958 13.5452 8.59616 11.4507 6.49948C11.2291 6.2778 10.9881 6.07614 10.7313 5.89645C10.5067 5.73996 10.2032 5.76364 10.0096 5.95724L9.2713 6.69528C8.97858 6.98825 8.84747 7.36984 8.86139 7.74045C8.86798 7.91794 8.95831 8.08176 9.1048 8.18234C9.20685 8.25266 9.33771 8.35324 9.46735 8.48264C10.4515 9.46701 10.4556 11.0644 9.46735 12.0527L7.11139 14.4084C6.1214 15.3984 4.50665 15.3923 3.52399 14.3904C2.55109 13.3982 2.58209 11.7983 3.56451 10.8159L4.02325 10.3571C4.17584 10.2046 4.22565 9.97873 4.15607 9.77463C3.9505 9.17184 3.83893 8.54758 3.81622 7.92624C3.7984 7.43893 3.20441 7.20944 2.85944 7.55441L1.55841 8.85544C-0.51947 10.9331 -0.51947 14.3139 1.55841 16.3916C3.63605 18.4692 7.01666 18.4695 9.09479 16.3916L11.4507 14.0356L11.4632 14.0227Z" transform="translate(13.7949 11.7949)" fill="white"/>
</mask>
<g mask="url(#mask0)">
<path fill-rule="evenodd" clip-rule="evenodd" d="M0 0H21.54V21.54H0V0Z" transform="translate(12 10)" fill="url(#paint0_linear)"/>
</g>
</g>
<defs>
<filter id="filter0_d" x="0" y="0" width="44.5513" height="42" filterUnits="userSpaceOnUse" color-interpolation-filters="sRGB">
<feFlood flood-opacity="0" result="BackgroundImageFix"/>
<feColorMatrix in="SourceAlpha" type="matrix" values="0 0 0 0 0 0 0 0 0 0 0 0 0 0 0 0 0 0 255 0"/>
<feOffset/>
<feGaussianBlur stdDeviation="2.5"/>
<feColorMatrix type="matrix" values="0 0 0 0 0 0 0 0 0 0 0 0 0 0 0 0 0 0 0.5 0"/>
<feBlend mode="normal" in2="BackgroundImageFix" result="effect1_dropShadow"/>
<feBlend mode="normal" in="SourceGraphic" in2="effect1_dropShadow" result="shape"/>
</filter>
<linearGradient id="paint0_linear" x2="1" gradientUnits="userSpaceOnUse" gradientTransform="translate(10.77) scale(21.54) rotate(90)">
<stop stop-color="#F7931E"/>
<stop offset="1" stop-color="#D4145A"/>
</linearGradient>
</defs>
</svg>
