<svg width="45" height="42" viewBox="0 0 45 42" fill="none" xmlns="http://www.w3.org/2000/svg">
<g filter="url(#filter0_d)">
<path fill-rule="evenodd" clip-rule="evenodd" d="M0 4.5C0 2.01472 2.01472 0 4.5 0H30.5C32.9853 0 35 2.01472 35 4.5V27.5C35 29.9853 32.9853 32 30.5 32H4.5C2.01472 32 0 29.9853 0 27.5V4.5Z" transform="translate(5 5)" fill="#2C2C2C"/>
<path fill-rule="evenodd" clip-rule="evenodd" d="M0 3.28125V2.1875C0 1.66797 0.429932 1.25 0.964355 1.25H5.46436L5.84204 0.519531C6.00269 0.199219 6.33618 0 6.7019 0H11.2942C11.6599 0 11.9934 0.199219 12.158 0.519531L12.5356 1.25H17.0356C17.5701 1.25 18 1.66797 18 2.1875V3.28125C18 3.53906 17.783 3.75 17.5178 3.75H0.482178C0.217041 3.75 0 3.53906 0 3.28125ZM16.7141 5.46875V18.125C16.7141 19.1602 15.8503 20 14.7856 20H3.21411C2.14941 20 1.28564 19.1602 1.28564 18.125V5.46875C1.28564 5.21094 1.50269 5 1.76782 5H16.2322C16.4973 5 16.7141 5.21094 16.7141 5.46875ZM5.66016 7.75488C5.73901 7.85864 5.78564 7.98682 5.78564 8.125V16.875C5.78564 17.2188 5.49634 17.5 5.14282 17.5C4.78931 17.5 4.5 17.2188 4.5 16.875V8.125C4.5 7.78125 4.78931 7.5 5.14282 7.5C5.35425 7.5 5.54272 7.60059 5.66016 7.75488ZM9.59668 7.89258C9.57935 7.85034 9.55713 7.81055 9.53101 7.77344C9.41479 7.60864 9.21973 7.5 9 7.5C8.64648 7.5 8.35718 7.78125 8.35718 8.125V16.875C8.35718 17.2188 8.64648 17.5 9 17.5C9.35352 17.5 9.64282 17.2188 9.64282 16.875V8.125C9.64282 8.04297 9.62646 7.9646 9.59668 7.89258ZM12.8572 7.5C13.2107 7.5 13.5 7.78125 13.5 8.125V16.875C13.5 17.2188 13.2107 17.5 12.8572 17.5C12.5037 17.5 12.2144 17.2188 12.2144 16.875V8.125C12.2144 7.78125 12.5037 7.5 12.8572 7.5Z" transform="translate(14 11)" fill="black"/>
<mask id="mask0" mask-type="alpha" maskUnits="userSpaceOnUse" x="14" y="11" width="18" height="20">
<path fill-rule="evenodd" clip-rule="evenodd" d="M0 3.28125V2.1875C0 1.66797 0.429932 1.25 0.964355 1.25H5.46436L5.84204 0.519531C6.00269 0.199219 6.33618 0 6.7019 0H11.2942C11.6599 0 11.9934 0.199219 12.158 0.519531L12.5356 1.25H17.0356C17.5701 1.25 18 1.66797 18 2.1875V3.28125C18 3.53906 17.783 3.75 17.5178 3.75H0.482178C0.217041 3.75 0 3.53906 0 3.28125ZM16.7141 5.46875V18.125C16.7141 19.1602 15.8503 20 14.7856 20H3.21411C2.14941 20 1.28564 19.1602 1.28564 18.125V5.46875C1.28564 5.21094 1.50269 5 1.76782 5H16.2322C16.4973 5 16.7141 5.21094 16.7141 5.46875ZM5.66016 7.75488C5.73901 7.85864 5.78564 7.98682 5.78564 8.125V16.875C5.78564 17.2188 5.49634 17.5 5.14282 17.5C4.78931 17.5 4.5 17.2188 4.5 16.875V8.125C4.5 7.78125 4.78931 7.5 5.14282 7.5C5.35425 7.5 5.54272 7.60059 5.66016 7.75488ZM9.59668 7.89258C9.57935 7.85034 9.55713 7.81055 9.53101 7.77344C9.41479 7.60864 9.21973 7.5 9 7.5C8.64648 7.5 8.35718 7.78125 8.35718 8.125V16.875C8.35718 17.2188 8.64648 17.5 9 17.5C9.35352 17.5 9.64282 17.2188 9.64282 16.875V8.125C9.64282 8.04297 9.62646 7.9646 9.59668 7.89258ZM12.8572 7.5C13.2107 7.5 13.5 7.78125 13.5 8.125V16.875C13.5 17.2188 13.2107 17.5 12.8572 17.5C12.5037 17.5 12.2144 17.2188 12.2144 16.875V8.125C12.2144 7.78125 12.5037 7.5 12.8572 7.5Z" transform="translate(14 11)" fill="white"/>
</mask>
<g mask="url(#mask0)">
<path fill-rule="evenodd" clip-rule="evenodd" d="M0 0H24V24H0V0Z" transform="translate(11 9)" fill="url(#paint0_linear)"/>
</g>
</g>
<defs>
<filter id="filter0_d" x="0" y="0" width="45" height="42" filterUnits="userSpaceOnUse" color-interpolation-filters="sRGB">
<feFlood flood-opacity="0" result="BackgroundImageFix"/>
<feColorMatrix in="SourceAlpha" type="matrix" values="0 0 0 0 0 0 0 0 0 0 0 0 0 0 0 0 0 0 255 0"/>
<feOffset/>
<feGaussianBlur stdDeviation="2.5"/>
<feColorMatrix type="matrix" values="0 0 0 0 0 0 0 0 0 0 0 0 0 0 0 0 0 0 0.5 0"/>
<feBlend mode="normal" in2="BackgroundImageFix" result="effect1_dropShadow"/>
<feBlend mode="normal" in="SourceGraphic" in2="effect1_dropShadow" result="shape"/>
</filter>
<linearGradient id="paint0_linear" x2="1" gradientUnits="userSpaceOnUse" gradientTransform="translate(12) scale(24) rotate(90)">
<stop stop-color="#F7931E"/>
<stop offset="1" stop-color="#D4145A"/>
</linearGradient>
</defs>
</svg>
