<svg width="80" height="80" viewBox="0 0 80 80" fill="none" xmlns="http://www.w3.org/2000/svg">
<path fill-rule="evenodd" clip-rule="evenodd" d="M0 5.46875V3.64587C0 2.77991 0.716553 2.08337 1.60718 2.08337H9.10718L9.73657 0.865845C10.0045 0.332031 10.5603 0 11.1697 0H18.8236C19.433 0 19.9889 0.332031 20.2634 0.865845L20.8928 2.08337H28.3928C29.2834 2.08337 30 2.77991 30 3.64587V5.46875C30 5.89844 29.6384 6.25 29.1964 6.25H0.803589C0.361572 6.25 0 5.89844 0 5.46875ZM27.8571 9.11462V30.2084C27.8571 31.9336 26.4174 33.3334 24.6428 33.3334H5.35706C3.58252 33.3334 2.14282 31.9336 2.14282 30.2084V9.11462C2.14282 8.68494 2.50439 8.33337 2.94641 8.33337H27.0536C27.4955 8.33337 27.8571 8.68494 27.8571 9.11462ZM8.57141 12.5C9.16077 12.5 9.64282 12.9688 9.64282 13.5416V28.125C9.64282 28.6979 9.16077 29.1666 8.57141 29.1666C7.98218 29.1666 7.5 28.6979 7.5 28.125V13.5416C7.5 12.9688 7.98218 12.5 8.57141 12.5ZM16.0714 13.5416C16.0714 12.9688 15.5894 12.5 15 12.5C14.4108 12.5 13.9286 12.9688 13.9286 13.5416V28.125C13.9286 28.6979 14.4108 29.1666 15 29.1666C15.5894 29.1666 16.0714 28.6979 16.0714 28.125V13.5416ZM21.4286 12.5C22.0179 12.5 22.5 12.9688 22.5 13.5416V28.125C22.5 28.6979 22.0179 29.1666 21.4286 29.1666C20.8394 29.1666 20.3572 28.6979 20.3572 28.125V13.5416C20.3572 12.9688 20.8394 12.5 21.4286 12.5Z" transform="translate(10 6.66675) scale(2)" fill="black"/>
<mask id="mask0" mask-type="alpha" maskUnits="userSpaceOnUse" x="10" y="6" width="60" height="68">
<path fill-rule="evenodd" clip-rule="evenodd" d="M0 5.46875V3.64587C0 2.77991 0.716553 2.08337 1.60718 2.08337H9.10718L9.73657 0.865845C10.0045 0.332031 10.5603 0 11.1697 0H18.8236C19.433 0 19.9889 0.332031 20.2634 0.865845L20.8928 2.08337H28.3928C29.2834 2.08337 30 2.77991 30 3.64587V5.46875C30 5.89844 29.6384 6.25 29.1964 6.25H0.803589C0.361572 6.25 0 5.89844 0 5.46875ZM27.8571 9.11462V30.2084C27.8571 31.9336 26.4174 33.3334 24.6428 33.3334H5.35706C3.58252 33.3334 2.14282 31.9336 2.14282 30.2084V9.11462C2.14282 8.68494 2.50439 8.33337 2.94641 8.33337H27.0536C27.4955 8.33337 27.8571 8.68494 27.8571 9.11462ZM8.57141 12.5C9.16077 12.5 9.64282 12.9688 9.64282 13.5416V28.125C9.64282 28.6979 9.16077 29.1666 8.57141 29.1666C7.98218 29.1666 7.5 28.6979 7.5 28.125V13.5416C7.5 12.9688 7.98218 12.5 8.57141 12.5ZM16.0714 13.5416C16.0714 12.9688 15.5894 12.5 15 12.5C14.4108 12.5 13.9286 12.9688 13.9286 13.5416V28.125C13.9286 28.6979 14.4108 29.1666 15 29.1666C15.5894 29.1666 16.0714 28.6979 16.0714 28.125V13.5416ZM21.4286 12.5C22.0179 12.5 22.5 12.9688 22.5 13.5416V28.125C22.5 28.6979 22.0179 29.1666 21.4286 29.1666C20.8394 29.1666 20.3572 28.6979 20.3572 28.125V13.5416C20.3572 12.9688 20.8394 12.5 21.4286 12.5Z" transform="translate(10 6.66675) scale(2)" fill="white"/>
</mask>
<g mask="url(#mask0)">
<path fill-rule="evenodd" clip-rule="evenodd" d="M0 0H40V40H0V0Z" transform="scale(2)" fill="url(#paint0_linear)"/>
</g>
<defs>
<linearGradient id="paint0_linear" x2="1" gradientUnits="userSpaceOnUse" gradientTransform="translate(20) scale(40) rotate(90)">
<stop stop-color="#F7931E"/>
<stop offset="1" stop-color="#D4145A"/>
</linearGradient>
</defs>
</svg>
