<svg width="45" height="42" viewBox="0 0 45 42" fill="none" xmlns="http://www.w3.org/2000/svg">
<g filter="url(#filter0_d)">
<path fill-rule="evenodd" clip-rule="evenodd" d="M0 4.5C0 2.01472 2.01472 0 4.5 0H30.5C32.9853 0 35 2.01472 35 4.5V27.5C35 29.9853 32.9853 32 30.5 32H4.5C2.01472 32 0 29.9853 0 27.5V4.5Z" transform="translate(5 5)" fill="#2C2C2C"/>
<path fill-rule="evenodd" clip-rule="evenodd" d="M19.6042 2.11639L17.9097 0.400818C17.3819 -0.133606 16.5243 -0.133606 15.9931 0.400818L14.7639 1.6452C14.6319 1.77875 14.6319 1.99677 14.7639 2.13031L17.8958 5.30145C18.0278 5.435 18.2431 5.435 18.375 5.30145L19.6042 4.05707C20.1319 3.51898 20.1319 2.65082 19.6042 2.11639ZM13.9792 2.92133L17.1111 6.09247C17.2431 6.22601 17.2431 6.44403 17.1111 6.57758L9.52778 14.2558L6.30556 14.6179C5.875 14.6672 5.51041 14.298 5.55903 13.862L5.91666 10.5995L13.5 2.92133C13.6319 2.78778 13.8472 2.78778 13.9792 2.92133ZM13.3333 15.7465V12.1677C13.3333 12.0551 13.3785 11.9496 13.4549 11.8688L14.8438 10.4626C15.1076 10.1989 15.5556 10.3852 15.5556 10.7614V16.309C15.5556 17.2407 14.809 17.9965 13.8889 17.9965H1.66666C0.746529 17.9965 0 17.2407 0 16.309V3.93402C0 3.00238 0.746529 2.24652 1.66666 2.24652H11.5903C11.9618 2.24652 12.1493 2.70013 11.8854 2.96722L10.4965 4.37347C10.4167 4.45087 10.3125 4.49652 10.2014 4.49652H2.22222V15.7465H13.3333Z" transform="translate(13 11.0017)" fill="black"/>
<mask id="mask0" mask-type="alpha" maskUnits="userSpaceOnUse" x="13" y="11" width="20" height="18">
<path fill-rule="evenodd" clip-rule="evenodd" d="M19.6042 2.11639L17.9097 0.400818C17.3819 -0.133606 16.5243 -0.133606 15.9931 0.400818L14.7639 1.6452C14.6319 1.77875 14.6319 1.99677 14.7639 2.13031L17.8958 5.30145C18.0278 5.435 18.2431 5.435 18.375 5.30145L19.6042 4.05707C20.1319 3.51898 20.1319 2.65082 19.6042 2.11639ZM13.9792 2.92133L17.1111 6.09247C17.2431 6.22601 17.2431 6.44403 17.1111 6.57758L9.52778 14.2558L6.30556 14.6179C5.875 14.6672 5.51041 14.298 5.55903 13.862L5.91666 10.5995L13.5 2.92133C13.6319 2.78778 13.8472 2.78778 13.9792 2.92133ZM13.3333 15.7465V12.1677C13.3333 12.0551 13.3785 11.9496 13.4549 11.8688L14.8438 10.4626C15.1076 10.1989 15.5556 10.3852 15.5556 10.7614V16.309C15.5556 17.2407 14.809 17.9965 13.8889 17.9965H1.66666C0.746529 17.9965 0 17.2407 0 16.309V3.93402C0 3.00238 0.746529 2.24652 1.66666 2.24652H11.5903C11.9618 2.24652 12.1493 2.70013 11.8854 2.96722L10.4965 4.37347C10.4167 4.45087 10.3125 4.49652 10.2014 4.49652H2.22222V15.7465H13.3333Z" transform="translate(13 11.0017)" fill="white"/>
</mask>
<g mask="url(#mask0)">
<path fill-rule="evenodd" clip-rule="evenodd" d="M0 0H24V24H0V0Z" transform="translate(11 8)" fill="url(#paint0_linear)"/>
</g>
</g>
<defs>
<filter id="filter0_d" x="0" y="0" width="45" height="42" filterUnits="userSpaceOnUse" color-interpolation-filters="sRGB">
<feFlood flood-opacity="0" result="BackgroundImageFix"/>
<feColorMatrix in="SourceAlpha" type="matrix" values="0 0 0 0 0 0 0 0 0 0 0 0 0 0 0 0 0 0 255 0"/>
<feOffset/>
<feGaussianBlur stdDeviation="2.5"/>
<feColorMatrix type="matrix" values="0 0 0 0 0 0 0 0 0 0 0 0 0 0 0 0 0 0 0.5 0"/>
<feBlend mode="normal" in2="BackgroundImageFix" result="effect1_dropShadow"/>
<feBlend mode="normal" in="SourceGraphic" in2="effect1_dropShadow" result="shape"/>
</filter>
<linearGradient id="paint0_linear" x2="1" gradientUnits="userSpaceOnUse" gradientTransform="translate(12) scale(24) rotate(90)">
<stop stop-color="#F7931E"/>
<stop offset="1" stop-color="#D4145A"/>
</linearGradient>
</defs>
</svg>
