<?xml version="1.0" encoding="UTF-8"?>
<svg width="26px" height="28px" viewBox="0 0 26 28" version="1.1" xmlns="http://www.w3.org/2000/svg" xmlns:xlink="http://www.w3.org/1999/xlink">
    <!-- Generator: Sketch 50.2 (55047) - http://www.bohemiancoding.com/sketch -->
    <title>Icons/Solid/calendar-alt</title>
    <desc>Created with Sketch.</desc>
    <defs>
        <filter x="-2.8%" y="-0.4%" width="107.8%" height="101.2%" filterUnits="objectBoundingBox" id="filter-1">
            <feOffset dx="2" dy="2" in="SourceAlpha" result="shadowOffsetOuter1"></feOffset>
            <feGaussianBlur stdDeviation="2" in="shadowOffsetOuter1" result="shadowBlurOuter1"></feGaussianBlur>
            <feColorMatrix values="0 0 0 0 0   0 0 0 0 0   0 0 0 0 0  0 0 0 0.5 0" type="matrix" in="shadowBlurOuter1" result="shadowMatrixOuter1"></feColorMatrix>
            <feMerge>
                <feMergeNode in="shadowMatrixOuter1"></feMergeNode>
                <feMergeNode in="SourceGraphic"></feMergeNode>
            </feMerge>
        </filter>
        <path d="M20.5178571,8.25 L3.48214286,8.25 C3.21696429,8.25 3,8.0390625 3,7.78125 L3,6.375 C3,5.33984375 3.86383929,4.5 4.92857143,4.5 L6.85714286,4.5 L6.85714286,2.46875 C6.85714286,2.2109375 7.07410714,2 7.33928571,2 L8.94642857,2 C9.21160714,2 9.42857143,2.2109375 9.42857143,2.46875 L9.42857143,4.5 L14.5714286,4.5 L14.5714286,2.46875 C14.5714286,2.2109375 14.7883929,2 15.0535714,2 L16.6607143,2 C16.9258929,2 17.1428571,2.2109375 17.1428571,2.46875 L17.1428571,4.5 L19.0714286,4.5 C20.1361607,4.5 21,5.33984375 21,6.375 L21,7.78125 C21,8.0390625 20.7830357,8.25 20.5178571,8.25 Z M3.48214286,9.5 L20.5178571,9.5 C20.7830357,9.5 21,9.7109375 21,9.96875 L21,20.125 C21,21.1601562 20.1361607,22 19.0714286,22 L4.92857143,22 C3.86383929,22 3,21.1601562 3,20.125 L3,9.96875 C3,9.7109375 3.21696429,9.5 3.48214286,9.5 Z M8.14285714,17.46875 C8.14285714,17.2109375 7.92589286,17 7.66071429,17 L6.05357143,17 C5.78839286,17 5.57142857,17.2109375 5.57142857,17.46875 L5.57142857,19.03125 C5.57142857,19.2890625 5.78839286,19.5 6.05357143,19.5 L7.66071429,19.5 C7.92589286,19.5 8.14285714,19.2890625 8.14285714,19.03125 L8.14285714,17.46875 Z M8.14285714,12.46875 C8.14285714,12.2109375 7.92589286,12 7.66071429,12 L6.05357143,12 C5.78839286,12 5.57142857,12.2109375 5.57142857,12.46875 L5.57142857,14.03125 C5.57142857,14.2890625 5.78839286,14.5 6.05357143,14.5 L7.66071429,14.5 C7.92589286,14.5 8.14285714,14.2890625 8.14285714,14.03125 L8.14285714,12.46875 Z M13.2857143,17.46875 C13.2857143,17.2109375 13.06875,17 12.8035714,17 L11.1964286,17 C10.93125,17 10.7142857,17.2109375 10.7142857,17.46875 L10.7142857,19.03125 C10.7142857,19.2890625 10.93125,19.5 11.1964286,19.5 L12.8035714,19.5 C13.06875,19.5 13.2857143,19.2890625 13.2857143,19.03125 L13.2857143,17.46875 Z M13.2857143,12.46875 C13.2857143,12.2109375 13.06875,12 12.8035714,12 L11.1964286,12 C10.93125,12 10.7142857,12.2109375 10.7142857,12.46875 L10.7142857,14.03125 C10.7142857,14.2890625 10.93125,14.5 11.1964286,14.5 L12.8035714,14.5 C13.06875,14.5 13.2857143,14.2890625 13.2857143,14.03125 L13.2857143,12.46875 Z M18.4285714,17.46875 C18.4285714,17.2109375 18.2116071,17 17.9464286,17 L16.3392857,17 C16.0741071,17 15.8571429,17.2109375 15.8571429,17.46875 L15.8571429,19.03125 C15.8571429,19.2890625 16.0741071,19.5 16.3392857,19.5 L17.9464286,19.5 C18.2116071,19.5 18.4285714,19.2890625 18.4285714,19.03125 L18.4285714,17.46875 Z M18.4285714,12.46875 C18.4285714,12.2109375 18.2116071,12 17.9464286,12 L16.3392857,12 C16.0741071,12 15.8571429,12.2109375 15.8571429,12.46875 L15.8571429,14.03125 C15.8571429,14.2890625 16.0741071,14.5 16.3392857,14.5 L17.9464286,14.5 C18.2116071,14.5 18.4285714,14.2890625 18.4285714,14.03125 L18.4285714,12.46875 Z" id="path-2"></path>
        <linearGradient x1="50%" y1="0%" x2="50%" y2="100%" id="linearGradient-4">
            <stop stop-color="#F7931E" offset="0%"></stop>
            <stop stop-color="#D4145A" offset="100%"></stop>
        </linearGradient>
    </defs>
    <g id="Symbols" stroke="none" stroke-width="1" fill="none" fill-rule="evenodd">
        <g id="nav-droite-hover" transform="translate(-16.000000, -351.000000)">
            <g id="nav-droite" filter="url(#filter-1)">
                <g id="agenda" transform="translate(15.000000, 351.000000)">
                    <g id="Icons/Solid/calendar-alt">
                        <mask id="mask-3" fill="white">
                            <use xlink:href="#path-2"></use>
                        </mask>
                        <use id="calendar-alt" fill="#000000" fill-rule="nonzero" xlink:href="#path-2"></use>
                        <g id="Orange-pink" mask="url(#mask-3)" fill="url(#linearGradient-4)" fill-rule="evenodd">
                            <rect id="Rectangle" x="0" y="0" width="24" height="24"></rect>
                        </g>
                    </g>
                </g>
            </g>
        </g>
    </g>
</svg>