<?xml version="1.0" encoding="UTF-8"?>
<svg width="26px" height="28px" viewBox="0 0 26 28" version="1.1" xmlns="http://www.w3.org/2000/svg" xmlns:xlink="http://www.w3.org/1999/xlink">
    <!-- Generator: Sketch 50.2 (55047) - http://www.bohemiancoding.com/sketch -->
    <title>Icons/Regular/address-book</title>
    <desc>Created with Sketch.</desc>
    <defs>
        <filter x="-2.8%" y="-0.4%" width="107.8%" height="101.2%" filterUnits="objectBoundingBox" id="filter-1">
            <feOffset dx="2" dy="2" in="SourceAlpha" result="shadowOffsetOuter1"></feOffset>
            <feGaussianBlur stdDeviation="2" in="shadowOffsetOuter1" result="shadowBlurOuter1"></feGaussianBlur>
            <feColorMatrix values="0 0 0 0 0   0 0 0 0 0   0 0 0 0 0  0 0 0 0.5 0" type="matrix" in="shadowBlurOuter1" result="shadowMatrixOuter1"></feColorMatrix>
            <feMerge>
                <feMergeNode in="shadowMatrixOuter1"></feMergeNode>
                <feMergeNode in="SourceGraphic"></feMergeNode>
            </feMerge>
        </filter>
        <path d="M20.5178571,8.25 C20.7841205,8.25 21,8.04011719 21,7.78125 L21,6.21875 C21,5.95988281 20.7841205,5.75 20.5178571,5.75 L19.7142857,5.75 L19.7142857,3.875 C19.7142857,2.83945312 18.8508482,2 17.7857143,2 L4.92857143,2 C3.8634375,2 3,2.83945312 3,3.875 L3,20.125 C3,21.1605469 3.8634375,22 4.92857143,22 L17.7857143,22 C18.8508482,22 19.7142857,21.1605469 19.7142857,20.125 L19.7142857,18.25 L20.5178571,18.25 C20.7841205,18.25 21,18.0401172 21,17.78125 L21,16.21875 C21,15.9598828 20.7841205,15.75 20.5178571,15.75 L19.7142857,15.75 L19.7142857,13.25 L20.5178571,13.25 C20.7841205,13.25 21,13.0401172 21,12.78125 L21,11.21875 C21,10.9598828 20.7841205,10.75 20.5178571,10.75 L19.7142857,10.75 L19.7142857,8.25 L20.5178571,8.25 Z M17.5446429,20.125 L5.16964286,20.125 C5.03650278,20.125 4.92857143,20.0200667 4.92857143,19.890625 L4.92857143,4.109375 C4.92857143,3.97993326 5.03650278,3.875 5.16964286,3.875 L17.5446429,3.875 C17.6777829,3.875 17.7857143,3.97993326 17.7857143,4.109375 L17.7857143,19.890625 C17.7857143,20.0200667 17.6777829,20.125 17.5446429,20.125 Z M8.14285714,10.125 C8.14285714,8.39910156 9.58193304,7 11.3571429,7 C13.1323527,7 14.5714286,8.39910156 14.5714286,10.125 C14.5714286,11.8508984 13.1323527,13.25 11.3571429,13.25 C9.58193304,13.25 8.14285714,11.8508984 8.14285714,10.125 Z M16.5,15.3389453 L16.5,16.0625 C16.5,16.5802734 16.0682813,17 15.5357143,17 L7.17857143,17 C6.64600446,17 6.21428571,16.5802734 6.21428571,16.0625 L6.21428571,15.3389453 C6.21428571,14.4785547 6.8165625,13.7285937 7.67509821,13.5199219 L9.10774554,13.1717188 C10.2769821,13.989375 12.1014107,14.2242578 13.6065402,13.1717188 L15.0391875,13.5199219 C15.8977232,13.7285938 16.5,14.4785937 16.5,15.3389453 Z" id="path-2"></path>
        <linearGradient x1="50%" y1="0%" x2="50%" y2="100%" id="linearGradient-4">
            <stop stop-color="#F7931E" offset="0%"></stop>
            <stop stop-color="#D4145A" offset="100%"></stop>
        </linearGradient>
    </defs>
    <g id="Symbols" stroke="none" stroke-width="1" fill="none" fill-rule="evenodd">
        <g id="nav-droite-hover" transform="translate(-16.000000, -243.000000)">
            <g id="nav-droite" filter="url(#filter-1)">
                <g id="contacts" transform="translate(15.000000, 243.000000)">
                    <g id="Icons/Regular/address-book">
                        <mask id="mask-3" fill="white">
                            <use xlink:href="#path-2"></use>
                        </mask>
                        <use id="address-book" fill="#000000" fill-rule="nonzero" xlink:href="#path-2"></use>
                        <g id="Orange-pink" mask="url(#mask-3)" fill="url(#linearGradient-4)" fill-rule="evenodd">
                            <rect id="Rectangle" x="0" y="0" width="24" height="24"></rect>
                        </g>
                    </g>
                </g>
            </g>
        </g>
    </g>
</svg>